HIERARCHY
ROOT joint_Root
{
	OFFSET 0.0 0.0 0.0
	CHANNELS 6 Xposition Yposition Zposition Zrotation Xrotation Yrotation 
	JOINT Hips
	{
		OFFSET 4.5925 91.4895 -427.239
		CHANNELS 6 Xposition Yposition Zposition Zrotation Xrotation Yrotation 
		JOINT Spine
		{
			OFFSET 15.7357 0.0 0.0
			CHANNELS 6 Xposition Yposition Zposition Zrotation Xrotation Yrotation 
			JOINT Chest
			{
				OFFSET 8.98455 -0.406207 0.0
				CHANNELS 6 Xposition Yposition Zposition Zrotation Xrotation Yrotation 
				JOINT Neck
				{
					OFFSET 16.3773 0.0 0.0
					CHANNELS 6 Xposition Yposition Zposition Zrotation Xrotation Yrotation 
					JOINT Head
					{
						OFFSET 6.45672 0.0 0.0
						CHANNELS 6 Xposition Yposition Zposition Zrotation Xrotation Yrotation 
						End Site
						{
							OFFSET 0.0 0.0 0.0
						}
					}
				}
				JOINT Shoulder_L
				{
					OFFSET 12.9942 -0.242716 4.98039
					CHANNELS 6 Xposition Yposition Zposition Zrotation Xrotation Yrotation 
					JOINT UpperArm_L
					{
						OFFSET 5.34809 0.0 0.0
						CHANNELS 6 Xposition Yposition Zposition Zrotation Xrotation Yrotation 
						JOINT LowerArm_L
						{
							OFFSET 24.3286 1.87007e-05 0.0
							CHANNELS 6 Xposition Yposition Zposition Zrotation Xrotation Yrotation 
							JOINT Hand_L
							{
								OFFSET 22.2916 0.0 0.0
								CHANNELS 6 Xposition Yposition Zposition Zrotation Xrotation Yrotation 
								End Site
								{
									OFFSET 0.0 0.0 0.0
								}
							}
						}
					}
				}
				JOINT Shoulder_R
				{
					OFFSET 12.9945 -0.242716 -4.98039
					CHANNELS 6 Xposition Yposition Zposition Zrotation Xrotation Yrotation 
					JOINT UpperArm_R
					{
						OFFSET -5.34813 0.0 0.0
						CHANNELS 6 Xposition Yposition Zposition Zrotation Xrotation Yrotation 
						JOINT LowerArm_R
						{
							OFFSET -24.3289 0.000322201 0.0
							CHANNELS 6 Xposition Yposition Zposition Zrotation Xrotation Yrotation 
							JOINT Hand_R
							{
								OFFSET -22.2915 -0.000108084 0.0
								CHANNELS 6 Xposition Yposition Zposition Zrotation Xrotation Yrotation 
								End Site
								{
									OFFSET 0.0 0.0 0.0
								}
							}
						}
					}
				}
			}
		}
		JOINT UpperLeg_L
		{
			OFFSET -2.19248 -6.46944 0.0
			CHANNELS 6 Xposition Yposition Zposition Zrotation Xrotation Yrotation 
			JOINT LowerLeg_L
			{
				OFFSET 39.0811 0.0 -1.23785e-05
				CHANNELS 6 Xposition Yposition Zposition Zrotation Xrotation Yrotation 
				JOINT Foot_L
				{
					OFFSET 40.9854 0.0 -1.26872e-05
					CHANNELS 6 Xposition Yposition Zposition Zrotation Xrotation Yrotation 
					JOINT Toes_L
					{
						OFFSET 11.7543 0.0 0.0
						CHANNELS 6 Xposition Yposition Zposition Zrotation Xrotation Yrotation 
						End Site
						{
							OFFSET 0.0 0.0 0.0
						}
					}
				}
			}
		}
		JOINT UpperLeg_R
		{
			OFFSET -2.19251 6.46944 0.0
			CHANNELS 6 Xposition Yposition Zposition Zrotation Xrotation Yrotation 
			JOINT LowerLeg_R
			{
				OFFSET -39.0811 -0.00228153 -0.0401928
				CHANNELS 6 Xposition Yposition Zposition Zrotation Xrotation Yrotation 
				JOINT Foot_R
				{
					OFFSET -40.9854 0.0 0.0
					CHANNELS 6 Xposition Yposition Zposition Zrotation Xrotation Yrotation 
					JOINT Toes_R
					{
						OFFSET -11.7543 0.0 0.0
						CHANNELS 6 Xposition Yposition Zposition Zrotation Xrotation Yrotation 
						End Site
						{
							OFFSET 0.0 0.0 0.0
						}
					}
				}
			}
		}
	}
}
MOTION
Frames:	9
Frame Time:	0.0333333
0.000000 0.000000 0.000000 0.000000 0.000000 -0.000000 -3.691430 90.015800 2.105730 85.852800 -5.001980 5.193050 15.735700 0.000005 -0.000001 81.415100 84.573000 -86.534400 8.984550 -0.406207 -0.000000 2.925050 -1.403200 -10.192200 16.377300 -0.000001 -0.000001 5.930470 0.815427 1.825540 6.456720 -0.000001 -0.000000 -1.085890 2.009360 6.012580 12.994200 -0.242716 4.980390 -91.424300 3.205330 -66.026400 5.348090 -0.000007 -0.000001 -59.111800 17.951700 -8.836170 24.328600 0.000019 0.000005 6.736880 15.691500 -23.593300 22.291600 -0.000001 0.000005 16.445700 5.225480 2.071900 12.994500 -0.242716 -4.980390 91.181600 -3.563060 -71.639900 -5.348130 -0.000001 -0.000004 -55.252000 -60.310600 -57.617200 -24.328900 0.000322 -0.000009 -10.079000 -37.989200 -16.106300 -22.291500 -0.000108 -0.000004 26.261800 4.551280 15.755500 -2.192480 -6.469440 -0.000000 -169.972000 -10.034200 -5.103050 39.081100 -0.000007 -0.000012 -0.303039 0.432835 34.997400 40.985400 -0.000006 -0.000013 -2.977760 2.555210 -73.825000 11.754300 -0.000000 0.000003 -0.000376 -0.003140 -16.693600 -2.192510 6.469440 -0.000001 -177.957000 18.198900 176.389000 -39.081100 -0.002282 -0.040193 0.031061 -0.043636 32.467200 -40.985400 0.000008 0.000006 8.999860 10.323200 -73.620400 -11.754300 -0.000006 -0.000006 -0.111692 -0.154594 -17.641000
0.000000 0.000000 0.000000 0.000000 0.000000 -0.000000 -3.599080 89.988200 2.199640 85.878200 -5.037660 5.122950 15.735700 0.000005 -0.000001 79.998400 84.555400 -84.909300 8.984550 -0.406207 -0.000000 2.905690 -1.681770 -9.769060 16.377300 -0.000001 -0.000001 5.639690 1.163450 2.194060 6.456720 -0.000001 -0.000000 -1.098840 3.069050 5.916130 12.994200 -0.242716 4.980390 -91.399300 3.181960 -66.247800 5.348090 -0.000007 -0.000001 -60.276800 17.559000 -7.933780 24.328600 0.000019 0.000005 5.718810 14.368100 -21.975800 22.291600 -0.000001 0.000005 16.505000 5.222280 2.154130 12.994500 -0.242716 -4.980390 91.310000 -3.884960 -71.349800 -5.348130 -0.000001 -0.000004 -61.028000 -61.439900 -64.486600 -24.328900 0.000322 -0.000009 -10.119400 -34.846500 -17.344000 -22.291500 -0.000108 -0.000004 31.188400 4.587550 15.134400 -2.192480 -6.469440 -0.000000 -170.082000 -10.032300 -5.155710 39.081100 -0.000007 -0.000012 -0.303008 0.431206 35.096300 40.985400 -0.000006 -0.000013 -2.937130 2.465530 -73.953600 11.754300 -0.000000 0.000003 -0.000374 -0.003129 -16.693200 -2.192510 6.469440 -0.000001 -177.970000 17.851200 176.261000 -39.081100 -0.002282 -0.040193 0.031661 -0.044286 32.639100 -40.985400 0.000008 0.000006 8.874530 10.039400 -73.647500 -11.754300 -0.000006 -0.000006 -0.140267 -0.188588 -17.670400
0.000000 0.000000 0.000000 0.000000 0.000000 -0.000000 -3.422760 90.043100 2.351700 86.120000 -5.121140 5.030860 15.735700 0.000005 -0.000001 77.737000 84.594100 -82.371600 8.984550 -0.406207 -0.000000 2.733100 -2.091380 -9.210190 16.377300 -0.000001 -0.000001 5.933430 1.333570 2.498470 6.456720 -0.000001 -0.000000 -1.233400 3.789420 5.807250 12.994200 -0.242716 4.980390 -91.277200 2.922950 -66.384800 5.348090 -0.000007 -0.000001 -61.375500 18.412900 -7.158340 24.328600 0.000019 0.000005 5.114770 14.362200 -19.842600 22.291600 -0.000001 0.000005 15.992100 5.230780 1.935650 12.994500 -0.242716 -4.980390 91.717400 -5.004140 -71.031100 -5.348130 -0.000001 -0.000004 -62.134300 -62.518700 -70.385400 -24.328900 0.000322 -0.000009 -14.342900 -36.137400 -23.435800 -22.291500 -0.000108 -0.000004 29.086100 4.763200 11.968200 -2.192480 -6.469440 -0.000000 -170.392000 -10.469800 -4.918420 39.081100 -0.000007 -0.000012 -0.298205 0.431012 34.678800 40.985400 -0.000006 -0.000013 -2.728930 2.719640 -73.866100 11.754300 -0.000000 0.000003 -0.000390 -0.003236 -16.697000 -2.192510 6.469440 -0.000001 -178.232000 17.328000 176.243000 -39.081100 -0.002282 -0.040193 0.032715 -0.046077 32.556300 -40.985400 0.000008 0.000006 8.728940 9.701220 -73.517100 -11.754300 -0.000006 -0.000006 -0.193069 -0.251470 -17.732000
0.000000 0.000000 0.000000 0.000000 0.000000 -0.000000 -3.221430 90.150000 2.560190 86.513900 -5.142080 4.874480 15.735700 0.000005 -0.000001 75.045800 84.706400 -79.395800 8.984550 -0.406207 -0.000000 2.383770 -2.526010 -8.639620 16.377300 -0.000001 -0.000001 6.527170 1.273510 2.765240 6.456720 -0.000001 -0.000000 -1.192190 4.286110 5.329880 12.994200 -0.242716 4.980390 -91.156700 2.666470 -66.538500 5.348090 -0.000007 -0.000001 -62.149100 19.526500 -6.364590 24.328600 0.000019 0.000005 5.332880 16.623000 -18.073400 22.291600 -0.000001 0.000005 14.915100 5.216070 2.315360 12.994500 -0.242716 -4.980390 92.311700 -6.518880 -70.427100 -5.348130 -0.000001 -0.000004 -58.515000 -63.905800 -73.477100 -24.328900 0.000322 -0.000009 -21.041800 -34.434100 -34.230600 -22.291500 -0.000108 -0.000004 26.586200 4.985510 7.622070 -2.192480 -6.469440 -0.000000 -170.857000 -11.110000 -4.553200 39.081100 -0.000007 -0.000012 -0.286339 0.425968 33.909800 40.985400 -0.000006 -0.000013 -2.446050 3.154640 -73.628200 11.754300 -0.000000 0.000003 -0.000387 -0.003221 -16.696500 -2.192510 6.469440 -0.000001 -178.689000 16.955600 176.268000 -39.081100 -0.002282 -0.040193 0.031780 -0.045074 32.289600 -40.985400 0.000008 0.000006 8.411150 9.487540 -73.258100 -11.754300 -0.000006 -0.000006 -0.293720 -0.370535 -17.793000
0.000000 0.000000 0.000000 0.000000 0.000000 -0.000000 -3.047290 90.279100 2.810100 87.043300 -5.060250 4.896300 15.735700 0.000005 -0.000001 73.543900 84.725100 -77.669700 8.984550 -0.406207 -0.000000 2.267240 -2.788750 -8.189120 16.377300 -0.000001 -0.000001 6.995960 1.042340 3.144260 6.456720 -0.000001 -0.000000 -1.076070 4.843010 4.509140 12.994200 -0.242716 4.980390 -91.047000 2.450340 -66.855000 5.348090 -0.000007 -0.000001 -62.676000 19.922700 -5.913770 24.328600 0.000019 0.000005 5.694990 19.380500 -16.727400 22.291600 -0.000001 0.000005 13.851400 5.194550 2.856530 12.994500 -0.242716 -4.980390 92.962100 -7.864570 -69.287100 -5.348130 -0.000001 -0.000004 -55.889100 -66.407900 -77.886100 -24.328900 0.000322 -0.000009 -24.073800 -25.572000 -46.014800 -22.291500 -0.000108 -0.000004 27.740300 5.249380 1.476870 -2.192480 -6.469440 -0.000000 -171.420000 -11.610300 -3.879620 39.081100 -0.000007 -0.000012 -0.273833 0.423384 32.894200 40.985400 -0.000006 -0.000013 -2.206360 3.558770 -73.298800 11.754300 -0.000000 0.000003 -0.000357 -0.003011 -16.689000 -2.192510 6.469440 -0.000001 -179.345000 16.666800 176.545000 -39.081100 -0.002282 -0.040193 0.031473 -0.045144 31.969100 -40.985400 0.000008 0.000006 8.175300 9.288600 -73.006800 -11.754300 -0.000006 -0.000006 -0.353989 -0.442639 -17.925200
0.000000 0.000000 0.000000 0.000000 0.000000 -0.000000 -3.016960 90.385000 2.916950 87.444400 -4.955400 4.565120 15.735700 0.000005 -0.000001 73.046700 84.815400 -76.930000 8.984550 -0.406207 -0.000000 2.071000 -2.828840 -7.708990 16.377300 -0.000001 -0.000001 7.233270 0.639672 3.600010 6.456720 -0.000001 -0.000000 -1.001820 5.168270 3.554320 12.994200 -0.242716 4.980390 -90.951900 2.264590 -67.194700 5.348090 -0.000007 -0.000001 -63.092200 19.549700 -5.823510 24.328600 0.000019 0.000005 5.742510 20.835000 -15.787400 22.291600 -0.000001 0.000005 13.665800 5.168710 3.490610 12.994500 -0.242716 -4.980390 93.662000 -9.075250 -67.916100 -5.348130 -0.000001 -0.000004 -57.976600 -69.797000 -86.600500 -24.328900 0.000322 -0.000009 -18.569400 -13.019700 -56.202900 -22.291500 -0.000108 -0.000004 30.571300 5.487180 -5.864180 -2.192480 -6.469440 -0.000000 -171.837000 -12.061600 -3.781190 39.081100 -0.000007 -0.000012 -0.265360 0.423051 32.098600 40.985400 -0.000006 -0.000013 -2.073780 3.973640 -72.949100 11.754300 -0.000000 0.000003 -0.000361 -0.003036 -16.689900 -2.192510 6.469440 -0.000001 -179.591000 16.237700 176.359000 -39.081100 -0.002282 -0.040193 0.031138 -0.045156 31.654700 -40.985400 0.000008 0.000006 7.973120 8.869790 -72.785300 -11.754300 -0.000006 -0.000006 -0.446917 -0.552203 -17.912100
0.000000 0.000000 0.000000 0.000000 0.000000 -0.000000 -3.103880 90.434700 2.965120 87.667000 -4.987280 4.250320 15.735700 0.000005 -0.000001 73.716300 84.925100 -77.400500 8.984550 -0.406207 -0.000000 1.903950 -2.655950 -7.318210 16.377300 -0.000001 -0.000001 7.424680 0.188887 4.285610 6.456720 -0.000001 -0.000000 -1.047860 5.142430 2.429630 12.994200 -0.242716 4.980390 -90.853100 2.038800 -67.288900 5.348090 -0.000007 -0.000001 -63.468000 18.702600 -5.935350 24.328600 0.000019 0.000005 5.665670 21.027300 -15.455500 22.291600 -0.000001 0.000005 14.957000 5.141040 4.151340 12.994500 -0.242716 -4.980390 94.432300 -10.307600 -66.578900 -5.348130 -0.000001 -0.000004 -56.443800 -73.204300 -91.041100 -24.328900 0.000322 -0.000009 -13.501700 -6.640760 -64.285700 -22.291500 -0.000108 -0.000004 39.424300 5.712500 -20.182200 -2.192480 -6.469440 -0.000000 -172.010000 -12.341800 -3.830460 39.081100 -0.000007 -0.000012 -0.264260 0.428723 31.649800 40.985400 -0.000006 -0.000013 -2.084950 4.221860 -72.751800 11.754300 -0.000000 0.000003 -0.000333 -0.002836 -16.682800 -2.192510 6.469440 -0.000001 -179.594000 15.918600 176.124000 -39.081100 -0.002282 -0.040193 0.031682 -0.046391 31.459300 -40.985400 0.000008 0.000006 7.986230 8.545720 -72.755000 -11.754300 -0.000006 -0.000006 -0.348509 -0.436270 -17.934800
0.000000 0.000000 0.000000 0.000000 0.000000 -0.000000 -3.367560 90.439700 2.985060 87.648100 -4.847970 4.101950 15.735700 0.000005 -0.000001 73.914100 84.971100 -77.610900 8.984550 -0.406207 -0.000000 1.827140 -2.593840 -7.345940 16.377300 -0.000001 -0.000001 7.610570 -0.101135 5.188310 6.456720 -0.000001 -0.000000 -1.015140 5.151160 2.175570 12.994200 -0.242716 4.980390 -90.623100 1.483430 -67.211900 5.348090 -0.000007 -0.000001 -64.187600 16.832600 -5.888740 24.328600 0.000019 0.000005 6.060910 21.017900 -16.491000 22.291600 -0.000001 0.000005 17.135900 5.106870 4.951500 12.994500 -0.242716 -4.980390 95.185900 -11.345500 -65.234000 -5.348130 -0.000001 -0.000004 -46.511700 -74.291700 -83.362400 -24.328900 0.000322 -0.000009 -8.426290 -3.674390 -66.596800 -22.291500 -0.000108 -0.000004 58.947900 5.566000 -32.231000 -2.192480 -6.469440 -0.000000 -171.837000 -12.259100 -3.953920 39.081100 -0.000007 -0.000012 -0.263163 0.428358 31.565000 40.985400 -0.000006 -0.000013 -2.265550 4.300830 -72.664500 11.754300 -0.000000 0.000003 -0.000332 -0.002832 -16.682700 -2.192510 6.469440 -0.000001 -179.332000 15.935700 176.026000 -39.081100 -0.002282 -0.040193 0.031688 -0.046515 31.396800 -40.985400 0.000008 0.000006 8.053630 8.379360 -72.711400 -11.754300 -0.000006 -0.000006 -0.410005 -0.508744 -17.945400
0.000000 0.000000 0.000000 0.000000 0.000000 -0.000000 -3.773010 90.405500 2.961190 87.333300 -4.504420 4.059530 15.735700 0.000005 -0.000001 72.670500 84.936000 -76.592200 8.984550 -0.406207 -0.000000 1.820420 -2.811830 -7.792440 16.377300 -0.000001 -0.000001 7.815300 -0.242976 5.758400 6.456720 -0.000001 -0.000000 -1.123150 5.138100 2.878850 12.994200 -0.242716 4.980390 -90.545800 1.283940 -66.966900 5.348090 -0.000007 -0.000001 -64.489500 14.440800 -5.386130 24.328600 0.000019 0.000005 6.852670 20.144300 -19.238700 22.291600 -0.000001 0.000005 19.341200 5.088650 5.374020 12.994500 -0.242716 -4.980390 95.112100 -11.014400 -64.909300 -5.348130 -0.000001 -0.000004 -31.766600 -71.820900 -66.665200 -24.328900 0.000322 -0.000009 -6.364380 -3.512870 -61.248600 -22.291500 -0.000108 -0.000004 58.507800 5.619000 -30.007200 -2.192480 -6.469440 -0.000000 -171.291000 -11.768100 -4.191110 39.081100 -0.000007 -0.000012 -0.269077 0.433491 31.829200 40.985400 -0.000006 -0.000013 -2.571710 4.272300 -72.707800 11.754300 -0.000000 0.000003 -0.000352 -0.002972 -16.687700 -2.192510 6.469440 -0.000001 -178.813000 16.581600 176.057000 -39.081100 -0.002282 -0.040193 0.032338 -0.047627 31.371200 -40.985400 0.000008 0.000006 8.368250 8.564100 -72.729700 -11.754300 -0.000006 -0.000006 -0.508862 -0.625689 -17.965400
